<svg xmlns="http://www.w3.org/2000/svg" viewBox="0 0 996.69 201.9"><defs><style>.cls-1,.cls-2{fill:#00b2ff;}.cls-2{font-size:42.32px;font-family:Oxanium-Light, Oxanium;font-weight:300;}</style></defs><g id="Layer_2" data-name="Layer 2"><g id="Layer_1-2" data-name="Layer 1"><path class="cls-1" d="M978.66,113.76,906.53,201.9l49.38-94.09,19-7.78A80.86,80.86,0,0,1,978.66,113.76Z"/><path class="cls-1" d="M964.58,54.55,957,57.19A82.43,82.43,0,0,0,926.93,45.9h9.84Z"/><path class="cls-1" d="M996.69,90.62,989,93.76a83.21,83.21,0,0,0-31-35.95l7.89-2.76Z"/><path class="cls-1" d="M996,91.89l-5.12,6.26c-.46-1.19-1-2.38-1.47-3.56Z"/><path class="cls-1" d="M988.9,100.52,980.35,111a84.13,84.13,0,0,0-3.24-11.36l9.82-4,.57,1.34C988,98.09,988.46,99.3,988.9,100.52Z"/><path class="cls-1" d="M986.56,94.77l-9.76,4a83.51,83.51,0,0,0-28.3-37.65l6.27-2.19a81,81,0,0,1,31.79,35.84Z"/><path class="cls-1" d="M953.75,58.33l-6.13,2.15A81.48,81.48,0,0,0,921.7,47.9a79.35,79.35,0,0,1,32,10.43Z"/><path class="cls-1" d="M822.53,113.76l72.13,88.14-49.39-94.09-19-7.78A80.83,80.83,0,0,0,822.53,113.76Z"/><path class="cls-1" d="M836.61,54.55l7.56,2.64A82.55,82.55,0,0,1,874.26,45.9h-9.84Z"/><path class="cls-1" d="M804.5,90.62l7.67,3.14a83.21,83.21,0,0,1,31-35.95l-7.89-2.76Z"/><path class="cls-1" d="M805.22,91.89l5.12,6.26c.46-1.19.95-2.38,1.46-3.56Z"/><path class="cls-1" d="M812.28,100.52,820.83,111a84.17,84.17,0,0,1,3.25-11.36l-9.82-4-.57,1.34C813.2,98.09,812.73,99.3,812.28,100.52Z"/><path class="cls-1" d="M814.63,94.77l9.76,4a83.44,83.44,0,0,1,28.3-37.65l-6.27-2.19a81,81,0,0,0-31.79,35.84Z"/><path class="cls-1" d="M847.43,58.33l6.14,2.15A81.38,81.38,0,0,1,879.49,47.9a79.53,79.53,0,0,0-32.06,10.43Z"/><path class="cls-1" d="M913.55,167.22l36.31-62.88a15,15,0,0,0-13-22.45H864.29a15,15,0,0,0-13,22.45l36.3,62.88A15,15,0,0,0,913.55,167.22Z"/><text class="cls-2" transform="translate(441.4 35.76)">ignite the future</text><path class="cls-1" d="M26.24,128A47.3,47.3,0,0,0,73.46,175.2h73.47v26.24H73.46a73.47,73.47,0,0,1,0-146.93h73.47V80.75H73.46A47.3,47.3,0,0,0,26.24,128Z"/><path class="cls-1" d="M159.52,201.44h.42l-.42.42ZM306.46,54.3,249.57,128l-3.15,4v69.27H220.19V132.38l-3.57-4.4L159.73,54.3H192.9l40.3,52.26L273.5,54.3Zm-.21,147.14h.21v.42Z"/><path class="cls-1" d="M431.83,200.9H402.44L389,174.67l-32.12-63-32.11,63L311.34,200.9H282l13.43-26.23L356.89,54l61.5,120.7Z"/><path class="cls-1" d="M467.66,94.18v13.64h94.45v26.24H467.66v27.71a13.52,13.52,0,0,0,13.43,13.43H588.35v26.24H481.09a39.59,39.59,0,0,1-39.46-39.67V94.18a39.59,39.59,0,0,1,39.46-39.67H588.35V80.75H481.09A13.52,13.52,0,0,0,467.66,94.18Z"/><path class="cls-1" d="M756.27,54.72V201.65L730,181.5l-94.45-72.84v93H609.34V55.14l26.24,20.15L730,148.13V54.51Z"/></g></g></svg>