<?xml version="1.0" encoding="utf-8"?>
<!-- Generator: Adobe Illustrator 24.1.1, SVG Export Plug-In . SVG Version: 6.00 Build 0)  -->
<svg version="1.1" id="Layer_1" xmlns="http://www.w3.org/2000/svg" xmlns:xlink="http://www.w3.org/1999/xlink" x="0px" y="0px"
	 viewBox="0 0 512 512" style="enable-background:new 0 0 512 512;" xml:space="preserve">
<style type="text/css">
	.st0{fill:url(#SVGID_1_);}
	.st1{fill:#FFFFFF;}
</style>
<linearGradient id="SVGID_1_" gradientUnits="userSpaceOnUse" x1="0" y1="15610" x2="512" y2="15610" gradientTransform="matrix(1 0 0 1 0 -15354)">
	<stop  offset="0" style="stop-color:#FF1744"/>
	<stop  offset="1" style="stop-color:#FF2600"/>
</linearGradient>
<path class="st0" d="M512,256c0,141.4-114.6,256-256,256S0,397.4,0,256S114.6,0,256,0S512,114.6,512,256z"/>
<g>
	<path class="st1" d="M256,56C145.7,56,56,145.7,56,256s89.7,200,200,200s200-89.7,200-200S366.3,56,256,56z M256,426
		c-93.7,0-170-76.3-170-170S162.3,86,256,86s170,76.3,170,170S349.7,426,256,426z"/>
	<path class="st1" d="M256,288c8.3,0,15-6.7,15-15V172c0-8.3-6.7-15-15-15s-15,6.7-15,15v101C241,281.3,247.7,288,256,288z"/>
	<path class="st1" d="M277.2,329c0,11.7-9.5,21.2-21.2,21.2s-21.2-9.5-21.2-21.2c0-11.7,9.5-21.2,21.2-21.2S277.2,317.3,277.2,329z"
		/>
</g>
</svg>
