<?xml version="1.0" encoding="utf-8"?>
<!-- Generator: Adobe Illustrator 24.1.1, SVG Export Plug-In . SVG Version: 6.00 Build 0)  -->
<svg version="1.1" id="Capa_1" xmlns="http://www.w3.org/2000/svg" xmlns:xlink="http://www.w3.org/1999/xlink" x="0px" y="0px"
	 viewBox="0 0 124 124" style="enable-background:new 0 0 124 124;" xml:space="preserve">
<style type="text/css">
	.st0{fill:#FF1744;}
</style>
<g>
	<path class="st0" d="M9.8,118h104.4c7.3,0,12-7.7,8.7-14.2L70.7,11.3c-3.6-7.2-13.9-7.2-17.5,0L1,103.8C-2.2,110.3,2.5,118,9.8,118
		z M70.2,96.5c0,4.8-3.5,8.5-8.5,8.5s-8.5-3.7-8.5-8.5v-0.2c0-4.8,3.5-8.5,8.5-8.5s8.5,3.7,8.5,8.5V96.5z M57.1,34h9.8
		c2.7,0,4.3,2.3,4,5.2l-4.3,37.6c-0.3,2.7-2.1,4.4-4.6,4.4s-4.3-1.7-4.6-4.4l-4.3-37.6C52.8,36.3,54.4,34,57.1,34z"/>
</g>
</svg>
